<?xml version="1.0" encoding="utf-8"?>
<!-- Generator: Adobe Illustrator 24.0.0, SVG Export Plug-In . SVG Version: 6.00 Build 0)  -->
<svg version="1.1" id="Layer_1" xmlns="http://www.w3.org/2000/svg" xmlns:xlink="http://www.w3.org/1999/xlink" x="0px" y="0px"
	 viewBox="0 0 256 256" enable-background="new 0 0 256 256" xml:space="preserve">
<g>
</g>
<g>
	<path fill="#F0C020" d="M128,6.112l29.366,38.003c2.17,2.808,5.665,4.255,9.184,3.804l47.637-6.107l-6.107,47.637
		c-0.451,3.52,0.997,7.015,3.804,9.184L249.888,128l-38.003,29.366c-2.808,2.17-4.255,5.665-3.804,9.184l6.107,47.637l-47.637-6.107
		c-3.52-0.451-7.015,0.997-9.184,3.804L128,249.888l-29.366-38.003c-2.17-2.808-5.665-4.255-9.184-3.804l-47.637,6.107l6.107-47.637
		c0.451-3.52-0.997-7.015-3.804-9.184L6.112,128l38.003-29.366c2.808-2.17,4.255-5.665,3.804-9.184l-6.107-47.637l47.637,6.107
		c3.52,0.451,7.015-0.997,9.184-3.804L128,6.112z"/>
	<path fill="#E7A523" d="M102.921,179.716l10.976-37.95H98.312c-7.29,0-12.536-6.991-10.493-13.993l16.838-57.607
		c1.327-4.614,5.642-7.857,10.485-7.857h25.167c7.317,0,12.519,7,10.496,13.964l-8.717,30.327h15.601
		c8.749,0,13.952,9.803,9.053,17.052l-44.284,65.235C115.461,199.187,99.511,191.532,102.921,179.716z"/>
	<path fill="#EFEFEF" d="M160.941,119.731l-44.276,65.223c-2.513,3.7-8.25,0.967-7.019-3.297l13.562-46.892H98.312
		c-2.623,0-4.506-2.52-3.773-5.033l16.837-57.603c0.476-1.656,2.03-2.821,3.766-2.821h25.168c2.63,0,4.499,2.513,3.773,5.011
		l-11.291,39.279h24.896C160.846,113.599,162.7,117.13,160.941,119.731z"/>
	<path fill="#F8E5B0" d="M126.022,235.063L104.569,207.3c-3.644-4.714-9.748-7.467-16.073-6.658l-21.907,2.809
		c-1.377,0.183-2.622-0.792-2.797-2.162c-0.176-1.37,0.792-2.622,2.162-2.797l21.907-2.809c8.112-1.043,15.968,2.483,20.665,8.559
		L128,229.445l19.476-25.204c4.696-6.077,12.554-9.602,20.666-8.559l31.591,4.05l-4.05-31.592
		c-1.041-8.095,2.472-15.962,8.561-20.665L229.445,128l-25.201-19.475c-6.103-4.716-9.597-12.59-8.561-20.665l4.461-34.802
		c0.175-1.369,1.429-2.344,2.797-2.162c1.37,0.175,2.338,1.428,2.162,2.797l-4.461,34.801c-0.802,6.271,1.903,12.399,6.658,16.074
		l27.762,21.453c1.296,1,1.293,2.958,0,3.956L207.3,151.432c-4.755,3.673-7.455,9.786-6.658,16.074l4.461,34.8
		c0.207,1.615-1.164,3.002-2.798,2.797l-34.801-4.461c-6.228-0.803-12.374,1.872-16.071,6.657l-21.454,27.764
		C128.978,236.356,127.022,236.357,126.022,235.063z M50.897,202.942c-0.176-1.37,0.792-2.622,2.162-2.797l2.976-0.381
		c1.37-0.184,2.622,0.792,2.797,2.162c0.176,1.37-0.792,2.622-2.162,2.797l-2.976,0.381
		C52.342,205.281,51.074,204.323,50.897,202.942z"/>
	<path d="M210.14,182.57c-1.307,0.156-2.344,1.34-2.17,2.8c0.161,1.248,1.28,2.317,2.8,2.16c1.428-0.194,2.34-1.482,2.16-2.8
		C212.76,183.38,211.48,182.4,210.14,182.57z"/>
	<path d="M39.33,213.87c-0.211,1.635,1.19,3.01,2.8,2.8l47.64-6.11c2.6-0.34,5.28,0.78,6.89,2.85l29.36,38.01
		c1.02,1.296,2.945,1.29,3.959,0l29.37-38.01c1.59-2.07,4.21-3.19,6.88-2.85l47.641,6.11c1.613,0.21,3.009-1.18,2.8-2.8l-2.47-19.22
		c-0.17-1.35-1.45-2.33-2.79-2.16c-1.349,0.161-2.338,1.391-2.17,2.78c0,0.01,0,0.01,0,0.02l2.06,16.01l-44.43-5.7
		c-4.365-0.568-8.8,1.266-11.48,4.76L128,245.8l-27.39-35.44c-2.551-3.3-6.766-5.305-11.49-4.76l-44.42,5.7l5.7-44.43
		c0.565-4.287-1.227-8.748-4.76-11.48L10.2,128l35.44-27.39c3.547-2.742,5.33-7.23,4.76-11.47L44.7,44.7l44.43,5.7
		c4.38,0.55,8.8-1.3,11.48-4.75L128,10.2l27.39,35.44c2.647,3.423,7.025,5.335,11.47,4.76l44.44-5.7l-5.7,44.43
		c-0.568,4.343,1.259,8.782,4.76,11.48L245.8,128l-35.44,27.39c-3.573,2.754-5.326,7.25-4.76,11.5l1.101,8.56
		c0.17,1.35,1.439,2.34,2.8,2.16c1.359-0.17,2.33-1.43,2.16-2.8l-1.101-8.58c-0.337-2.612,0.757-5.268,2.851-6.89l38.01-29.36
		c1.293-1.017,1.293-2.943,0-3.96l-38.01-29.36c-2.01-1.556-3.193-4.154-2.851-6.89l6.11-47.64c0.209-1.617-1.17-2.994-2.8-2.8
		l-47.641,6.11c-2.722,0.341-5.326-0.83-6.88-2.86l-29.37-38c-1.015-1.292-2.941-1.296-3.959,0l-29.36,38
		c-1.533,1.99-4.097,3.2-6.9,2.86l-47.63-6.11c-1.662-0.195-3.007,1.199-2.8,2.8l6.11,47.64c0.344,2.75-0.85,5.341-2.86,6.89
		l-38,29.36c-1.294,1.018-1.292,2.943,0,3.96l38,29.36c1.992,1.535,3.2,4.099,2.86,6.9L39.33,213.87z"/>
	<path d="M101.98,104.27c1.284,0.39,2.71-0.369,3.1-1.69c0.39-1.33-0.37-2.72-1.7-3.11c-1.29-0.38-2.72,0.42-3.1,1.7
		C99.89,102.485,100.664,103.9,101.98,104.27z"/>
	<path d="M118.73,186.36l44.28-65.23c2.878-4.256-0.163-10.002-5.32-10.03h-21.58l10.37-36.09c1.208-4.192-1.985-8.188-6.17-8.2
		h-25.17c-2.88,0.01-5.36,1.87-6.17,4.63l-5.88,20.13c-0.397,1.338,0.371,2.732,1.7,3.1c1.29,0.39,2.72-0.41,3.1-1.69l5.89-20.15
		c0.15-0.57,0.74-1.02,1.34-1.02h25.19c0.912,0,1.643,0.864,1.37,1.82l-11.29,39.28c-0.463,1.581,0.741,3.19,2.4,3.19h24.899
		c1.14,0,1.814,1.271,1.181,2.24L114.6,183.55c-0.995,1.36-2.948,0.364-2.56-1.19l13.57-46.9c0.451-1.541-0.683-3.19-2.4-3.19h-24.9
		c-0.964-0.013-1.644-0.943-1.37-1.83l5.33-18.27c0.39-1.32-0.37-2.71-1.69-3.1c-1.3-0.38-2.73,0.41-3.1,1.7l-5.34,18.26
		c-1.214,4.145,1.932,8.216,6.17,8.24h21.57l-12.63,43.69C105.175,187.986,114.772,192.382,118.73,186.36z"/>
</g>
</svg>
