<svg xmlns="http://www.w3.org/2000/svg" viewBox="0 0 32 32"><title>plus android app aplication phone</title><g id="plus_android_app_aplication_phone" data-name="plus android app aplication phone"><path d="M16,31A15,15,0,1,1,31,16,15,15,0,0,1,16,31ZM16,3A13,13,0,1,0,29,16,13,13,0,0,0,16,3Z"/><path d="M17,24H15a2,2,0,0,1-2-2V19H10a2,2,0,0,1-2-2V15a2,2,0,0,1,2-2h3V10a2,2,0,0,1,2-2h2a2,2,0,0,1,2,2v3h3a2,2,0,0,1,2,2v2a2,2,0,0,1-2,2H19v3A2,2,0,0,1,17,24Zm-7-9v2h4a1,1,0,0,1,1,1v4h2V18a1,1,0,0,1,1-1h4V15H18a1,1,0,0,1-1-1V10H15v4a1,1,0,0,1-1,1Z"/></g></svg>